<svg width="619" height="170" xmlns="http://www.w3.org/2000/svg">
    <g fill="none">
        <path d="M68.555 119.3l4.07 2.908v.872l-4.07 2.907h-2.312V119.3h2.312zm3.197 3.34l-3.49-2.47h-1.148v4.942h1.15l3.488-2.472zM29.887 98.894h2.908v-4.94h-2.908v-.873h6.687v.872h-2.907v4.94h2.907v.873h-6.687zm5.165 23.75a1.77 1.77 0 11-3.543.002 1.772 1.772 0 013.542-.003l.001.001zm2.166 26.636h-7.85v-.872h7.85zm35.432 0h-3.488v3.49h-.872v-3.49H64.8v-.872h3.49v-3.49h.872v3.49h3.49v.872zm33.967.02l-2.035-2.352v5.84h-.872v-5.84l-2.034 2.352h-1.163l3.634-4.36 3.634 4.36h-1.162zm.87-30v6.687h-6.686V119.3h6.687-.001zm-5.812.87v4.942h4.942v-4.942h-4.942zM31.087 62.439h1.827c.71 0 1.234.108 1.585.333.52.332.728.82.728 1.476 0 .792-.45 1.395-1.197 1.647-.387.126-.846.153-1.305.153h-1.053v2.9h-.585v-6.51.001zm2.745 2.986c.505-.18.766-.72.766-1.233 0-1.08-.756-1.27-1.657-1.27h-1.268v2.638h.973c.35 0 .854-.018 1.187-.135h-.001zm-7.046 3.623c-2.017 0-2.854-1.53-2.854-3.367 0-1.792.89-3.358 2.854-3.358 2.043 0 2.862 1.42 2.862 3.303 0 1.837-.82 3.42-2.862 3.42v.002zm0-6.234c-1.62 0-2.206 1.46-2.206 2.863 0 1.414.576 2.88 2.205 2.88 1.64 0 2.215-1.458 2.215-2.88 0-1.467-.53-2.863-2.214-2.863zm11.942 3.466h-2.777v-.478h2.78v.478h-.003zm5.032 2.67h-4.673v-.604l3.89-5.41h-3.63v-.496h4.313v.522l-3.98 5.492h4.08v.496zm93.056 66.45l-.87-.87v-.87l.87-.872h.87l.872.87v.872l-.87.872h-.872v-.002zm6.388-.87l-.872.87h-.87l-.872-.87v-.87l.872-.872h.87l.873.87v.872h-.001zm-3.625 16.103a1.77 1.77 0 01-1.772-1.77 1.77 1.77 0 111.772 1.769v.001zm35.432 0a1.772 1.772 0 11.004-3.54 1.772 1.772 0 01-.004 3.539v.001zm3.92-16.103h-7.844v-.87h7.842v.87zm31.512 16.103a1.772 1.772 0 11.004-3.54 1.772 1.772 0 01-.004 3.539v.001zm4.64-13.78h-9.296v-5.518h9.295v5.52l.001-.002zm-2.903-3.775h.872v.58l-1.74 1.163v1.163h2.61v-.87h-1.742v-.002l1.743-1.16v-1.162l-.578-.58h-1.455l-.58.58v.87h.87v-.582zm-5.518 2.324l.58.58 1.162-1.16h.29l1.163 1.16.58-.58-1.16-1.162v-.29l1.16-1.162-.58-.58-1.162 1.16h-.29l-1.162-1.16-.58.58 1.16 1.162v.29l-1.161 1.162zm42.866-5.055l-4.78 2.76-.435-.755 4.78-2.76.435.755zm-5.509 4.183l-.872.872h-.87l-.873-.872v-.87l.872-.872h.87l.87.87v.872h.003zm6.387 0h-5.517v-.87h5.52v.87h-.003zm-4.53 16.103a1.77 1.77 0 11-.003-3.54 1.77 1.77 0 01.002 3.539l.001.001zm35.432 0a1.77 1.77 0 01-1.772-1.77 1.77 1.77 0 111.772 1.769v.001zm4.216-13.69h-8.423v-1.678l6.97-4.13h1.453v5.81-.002zm-7.548-.871h6.68v-4.066h-.29l-6.39 3.776v.29zm38.767 14.561a1.77 1.77 0 11-.001-3.543 1.772 1.772 0 010 3.542l.001.001zm4.135-13.74h-8.422v-5.81h1.452l6.97 4.146v1.664zm-7.548-4.937v4.066h6.68v-.29l-6.39-3.776h-.29zm38.849 18.677a1.77 1.77 0 11-.003-3.54 1.77 1.77 0 01.002 3.539l.001.001zm4.472-18.898h-2.905v5.52h-3.195v-2.325h-2.614v-.87h3.485v2.323h1.453v-5.52h3.776v.872zm28.485 2.796l-.872.872h-.87l-.872-.872v-.87l.87-.872h.872l.872.87v.872zm.872 0v-.87h3.188v.87h-3.188zm6.682 0l-.872.872h-.87l-.872-.872v-.87l.87-.872h.872l.872.87v.872zm-5.079 16.103a1.772 1.772 0 11.002-3.54 1.772 1.772 0 01-.001 3.539l-.001.001zm35.436 0a1.77 1.77 0 01-1.772-1.77 1.77 1.77 0 111.772 1.769v.001zm3.92-16.386h-.873v-2.033l-.87-.886h-.873l-.872.886v4.137l-1.382 1.383h-1.593l-1.382-1.382v-2.103h.873v1.743l.87.87h.872l.872-.87v-4.137l1.382-1.396h1.592l1.382 1.396v2.394zm28.23 3.478l-.87-.87v-1.162l.87-.872h1.16v-3.776h.874v5.81l-.873.87h-1.161zm6.681-2.904l-.873.87h-1.16l-.872-.87v-1.16l.87-.874h1.162v-3.775h.873v5.81-.001zm-3.397 15.814a1.77 1.77 0 01-1.772-1.772 1.77 1.77 0 113.543 0c0 .98-.794 1.77-1.773 1.77l.002.002zm32.764-15.232l-.58-.58-.29-.292v-.87l.87-.872h.872l.87.87v.872l-.87.872h-.872zm1.452-5.229h3.196l1.452 1.382v.36h-.872l-.942-.87h-2.473l-.942.87h-.87v-.36l1.45-1.382h.001zm5.518 4.358l-.87.872h-.872l-.58-.58-.29-.292v-.87l.87-.872h.872l.87.87v.872zm-4.303 16.103a1.772 1.772 0 11.002-.001l-.002.001zm35.433 0a1.772 1.772 0 11.002-.001l-.002.001zm-.876-12.493l-.682-.536 2.38-3.08h-3.195l3.442-4.474.687.53-2.387 3.083h3.195zm36.31 12.493a1.77 1.77 0 01-1.772-1.77 1.77 1.77 0 111.772 1.769v.001zm1.436-14.494v-1.164l.898-.872h-2.925v2.907h-3.772v-.87h2.9v-2.91h3.8l-.9-.87v-1.164l2.907 2.472-2.907 2.47zm33.997 14.493a1.77 1.77 0 01-1.772-1.77 1.77 1.77 0 111.772 1.769v.001zm2.894-17.26h-2.907v2.642l.872-.9h1.162l-2.47 2.91-2.473-2.91h1.162l.873.9V132.5h2.907v-2.333h.872v3.205zM244.608 82.963l.872-.872h1.16v-3.775h.872v5.81l-.87.87h-1.163l-.873-.87v-1.162zm1.272 11.687a1.771 1.771 0 11-.002 0h.002zm-37.782-16.337h3.66l1.278 1.065V80.8l-.917.84.916.84v1.302l-1.25 1.212h-3.688v-6.68l.001-.001zm4.067 4.475l-.728-.7h-2.467v2.035h2.467l.728-.65v-.685zm0-2.298v-.684l-.728-.62h-2.467v2.032h2.467l.728-.728zm.053 15.931a1.77 1.77 0 11-3.542.002 1.77 1.77 0 013.542-.002zm-145.275.002a1.77 1.77 0 110 .002v-.002zM64.76 79.538l2.252-2.253h3.335l2.253 2.254v3.335l-2.253 2.252h-1.232v.87h-.87v-.87h-1.233l-2.253-2.253v-3.336l.001.001zm3.484 4.712v-1.74l-.87-.873v-.87l.29-.29.58-.582h.87l.872.87v.872l-.87.872v1.74h.87l1.742-1.74v-2.615l-1.742-1.742h-2.613l-1.743 1.742v2.614l1.743 1.74.871.002zm34.13 12.173a1.77 1.77 0 11.001.002l-.001-.002zm5.41-14.02h-3.204v2.904h-.87V82.4h-3.202v-4.357h7.276v4.36zm-6.404-3.489l-.001 2.614h5.533v-2.614h-5.532zm36.429 17.506a1.77 1.77 0 113.54 0 1.771 1.771 0 01-3.542.002l.002-.002zm5.395-15.202l-3.194 1.452v2.614h-.87V82.67l-3.195-1.452v-.29h7.26v.29zm0-1.16h-7.26v-.292l3.195-1.452v-.87h.87v.87l3.196 1.452v.29zm31.809 14.593a1.77 1.77 0 110 3.542 1.771 1.771 0 010-3.542zm-1.28-9.656v-6.68h.872v6.68h-.872zm1.743-.87v-4.94h.87v4.94h-.87zm-5.23-2.907h1.742v-.87h.872v2.613h-.872v-.87h-1.742v-.873zm9.585.872h-1.743v1.452h-.87v-3.776h.87v1.452h1.743v.872zm100.16-.885l.873-.87h.87l.872.87v.872l-.87.87h-.872l-.872-.87v-.872h-.001zm-3.489 1.743l.872-.87h.87l.872.87v.872l-.87.87h-.872l-.872-.87v-.872zm9.585-2.615l-.87.872h-.872l-.87-.87v-.872l.87-.87h.87l.873.87v.87h-.001zm-4.774 14.317a1.771 1.771 0 11-.002 3.542 1.771 1.771 0 01.002-3.542zm30.527-14.885l1.452-1.45h1.743l1.162 1.16v.29h-.872l-.58-.58h-1.162l-.872.87v3.197l.87.87h1.163l.58-.58h.873v.29l-1.162 1.162h-1.743l-1.452-1.452v-3.777zm9.586 5.228h-.87v-2.904h-2.615v2.904h-.872v-6.68h.873v2.904h2.614v-2.905h.87v6.681zm-4.683 9.657a1.77 1.77 0 010 3.542 1.77 1.77 0 110-3.542zm33.663 1.771a1.77 1.77 0 11-.001.002l.001-.002zm7.45-14.33h-2.04v3.195h-7.248V82.09h-2.042v-.872h2.04v-3.195h7.248v3.195h2.04v.87l.002.003zm-8.416 2.322h5.504v-5.52h-5.504v5.52zm2.317-3.776v-.87h.872l-.002 3.775h-.87v-2.905zm35.855 17.556a1.77 1.77 0 010-3.542 1.77 1.77 0 11.001 3.542h-.001zm5.688-16.102h-2.04v3.195h-7.248V82.09h-2.04v-.872h2.04v-3.195h7.247v3.195h2.04v.87l.001.003zm-8.418 2.322h5.504v-5.52h-5.504v5.52zm1.445-4.066l.58-.58h1.456l.578.58v1.162l-1.742 1.16h1.743v.872h-2.61v-1.162l1.74-1.162v-.58h-.875v.58h-.87v-.87zm34.948 16.075a1.77 1.77 0 110 .002v-.002zm6.32-13.826l-1.16 1.162h-6.68l-1.162-1.16v-1.744l1.162-1.162h1.743l1.162 1.162v1.742l-.29.29h1.452l-.292-.29v-1.742l1.162-1.162h1.743l1.162 1.162v1.743l-.002-.001zm-2.545-2.036l-.65.653v1.02l.65.652h1.022l.65-.65v-1.022l-.65-.652-1.022-.001zm-4.937 0l-.65.653v1.02l.65.652h1.02l.652-.65v-1.022l-.65-.652-1.022-.001zm38.356 1.492l-1.89-2.803v5.747h-.872V78.28h1.236l1.526 2.32 1.526-2.32h1.236v6.716h-.872v-5.747zm1.784 14.37a1.772 1.772 0 11-3.543 0 1.772 1.772 0 013.543 0zm36.734-16.72v.882h-2.352v.882l.588.588v3.233h-.882v-2.94h-.882v2.94h-.88v-3.233l.586-.588v-.882h-2.35v-.882h6.172zm-3.822-1.034v-.882l.294-.294h.882l.294.294v.882l-.294.294h-.882l-.294-.294zm-1.023 17.755c0-.978.792-1.77 1.77-1.77a1.77 1.77 0 11.002 3.542 1.77 1.77 0 01-1.773-1.77l.001-.002zm35.432 0a1.77 1.77 0 110 .002v-.002zm3.47-11.135h-5.434v-7.262h1.162v-.87h1.787v.87h1.698v-.87H532v.87h1.162v5.026l-2.12 2.235.002.001zm-4.564-.875h4.182l1.627-1.743v-3.776h-5.81v5.52l.001-.001zm1.452-4.066l.58-.58h1.948v.87h-1.657v2.033h1.657v.872h-1.947l-.58-.58v-2.615h-.001zm36.847 14.305a1.771 1.771 0 11-.002 3.542 1.771 1.771 0 01.002-3.542zm-1.012-9.772v-.872h2.033v.872h-.58v.58h-.872v-.58h-.581zm2.032-1.453h-2.032l-1.162-2.033v-2.033l1.162-1.163h2.033l1.162 1.162v2.032l-1.162 2.033-.001.002zm-1.743-4.359l-.58.58v1.454l.87 1.452h.87l.873-1.452v-1.453l-.582-.582-1.451.001zm34.384 17.355a1.77 1.77 0 110 .002v-.002zm7.148-12.664h-1.162l-1.7-1.45h-.333v2.03h-5.808v-5.518h5.81v2.034h.29l1.742-1.453h1.162v4.356l-.001.001zm-8.135-.293h4.067l.043-3.776h-4.11v3.776zM171.756 12.371h8.133v4.94h-8.134v-4.94h.001zm.872.872v3.195h6.39v-3.195h-6.39zm-66.656-.678h.872v5.723h-.87v-5.722zm-2.026-1.276h.872v7h-.872zm-2.03 2.57h.873v4.43h-.873zM67.39 11.303h3.367l1.418 1.417v1.56l-1.418 1.418h-2.496v2.58h-.87V11.3l-.001.003zm3.913 2.612v-.837l-.907-.907h-2.135v2.653h2.136l.906-.909zm37.569 4.375H108v-2.857h.872v2.857zm35.706-5.21h-.567l-1.46 1.46.573 2.295v1.452H137.9v-1.452l1.45-5.81h2.325l.632 2.53 1.092-1.09-.003-.57.616-.615h.566l.615.617v.567l-.616.615.001.001zm-4.056 3.492l-.615-.616 1.722-1.722-.536-2.337h-1.163l-1.16 5.084v.436h3.485v-.435l-.398-1.743-1.335 1.333z" fill="#000"/>
        <g transform="translate(24 87)">
            <circle stroke="#000" stroke-linecap="square" cx="80.148" cy="61.838" r="8.5"/>
            <circle stroke="#000" stroke-linecap="square" cx="576.193" cy="61.867" r="8.5"/>
            <circle stroke="#000" stroke-linecap="square" cx="540.755" cy="61.816" r="8.5"/>
            <circle stroke="#000" stroke-linecap="square" cx="505.317" cy="61.819" r="8.5"/>
            <circle stroke="#000" stroke-linecap="square" cx="469.889" cy="61.82" r="8.5"/>
            <circle stroke="#000" stroke-linecap="square" cx="434.46" cy="61.821" r="8.5"/>
            <circle stroke="#000" stroke-linecap="square" cx="399.032" cy="61.822" r="8.5"/>
            <circle stroke="#000" stroke-linecap="square" cx="363.594" cy="61.825" r="8.5"/>
            <circle stroke="#000" stroke-linecap="square" cx="328.166" cy="61.826" r="8.5"/>
            <circle stroke="#000" stroke-linecap="square" cx="292.737" cy="61.827" r="8.5"/>
            <circle stroke="#000" stroke-linecap="square" cx="257.297" cy="61.869" r="8.5"/>
            <circle stroke="#000" stroke-linecap="square" cx="221.866" cy="61.867" r="8.5"/>
            <circle stroke="#000" stroke-linecap="square" cx="186.436" cy="61.865" r="8.5"/>
            <circle stroke="#000" stroke-linecap="square" cx="151.014" cy="61.834" r="8.5"/>
            <circle stroke="#000" stroke-linecap="square" cx="115.565" cy="61.855" r="8.5"/>
            <circle stroke="#000" stroke-linecap="square" cx="44.72" cy="61.839" r="8.5"/>
            <circle stroke="#000" stroke-linecap="square" cx="9.291" cy="61.84" r="8.5"/>
            <circle stroke="#000" stroke-linecap="square" cx="44.707" cy="35.643" r="8.5"/>
            <circle stroke="#000" stroke-linecap="square" cx="80.138" cy="35.646" r="8.5"/>
            <circle stroke="#000" stroke-linecap="square" cx="9.276" cy="35.641" r="8.5"/>
            <circle stroke="#000" stroke-linecap="square" cx="576.181" cy="9.376" r="8.5"/>
            <circle stroke="#000" stroke-linecap="square" cx="540.764" cy="9.425" r="8.5"/>
            <circle stroke="#000" stroke-linecap="square" cx="505.326" cy="9.43" r="8.5"/>
            <circle stroke="#000" stroke-linecap="square" cx="469.895" cy="9.428" r="8.5"/>
            <circle stroke="#000" stroke-linecap="square" cx="434.465" cy="9.426" r="8.5"/>
            <circle stroke="#000" stroke-linecap="square" cx="399.034" cy="9.424" r="8.5"/>
            <circle stroke="#000" stroke-linecap="square" cx="363.625" cy="9.424" r="8.5"/>
            <circle stroke="#000" stroke-linecap="square" cx="328.166" cy="9.426" r="8.5"/>
            <circle stroke="#000" stroke-linecap="square" cx="292.736" cy="9.424" r="8.5"/>
            <circle stroke="#000" stroke-linecap="square" cx="257.297" cy="9.393" r="8.5"/>
            <circle stroke="#000" stroke-linecap="square" cx="221.868" cy="9.394" r="8.5"/>
            <circle stroke="#000" stroke-linecap="square" cx="186.44" cy="9.395" r="8.5"/>
            <circle stroke="#000" stroke-linecap="square" cx="151.006" cy="9.423" r="8.5"/>
            <circle stroke="#000" stroke-linecap="square" cx="115.555" cy="9.417" r="8.5"/>
            <circle stroke="#000" stroke-linecap="square" cx="80.138" cy="9.426" r="8.5"/>
            <circle stroke="#000" stroke-linecap="square" cx="44.708" cy="9.423" r="8.5"/>
            <circle stroke="#000" stroke-linecap="square" cx="9.277" cy="9.421" r="8.5"/>
            <circle stroke="#000" stroke-linecap="square" cx="80.148" cy="61.838" r="8.5"/>
            <circle stroke="#000" stroke-linecap="square" cx="44.72" cy="61.839" r="8.5"/>
            <circle stroke="#000" stroke-linecap="square" cx="9.291" cy="61.84" r="8.5"/>
            <path d="M558.494 44.147a8.504 8.504 0 118.505-8.503 8.505 8.505 0 01-8.505 8.505v-.002zm1.096-12.423h-2.687l-.837.836v6.176l.837.837h2.688l.837-.837v-6.175l-.837-.836-.001-.001zm-.035 6.65l-.326.327h-1.965l-.326-.325v-5.453l.325-.326h1.964l.325.326v5.453l.003-.002zm-36.493 5.774a8.504 8.504 0 110-17.007 8.504 8.504 0 018.504 8.504 8.504 8.504 0 01-8.504 8.505v-.002zm1.241-12.424h-2.687l-.837.836v2.688l.836.837h2.507l.146-.11v2.4l-.326.326h-1.965l-.326-.29h-.87v.327l.836.837h2.687l.837-.837v-6.176l-.837-.836-.001-.002zm-.035 2.907v.256l-.326.326h-1.965l-.326-.326v-1.964l.327-.326h1.965l.326.326v1.71l-.001-.002zm-72.07 9.516a8.504 8.504 0 11-.001-17.007 8.504 8.504 0 018.504 8.504 8.504 8.504 0 01-8.504 8.505l.001-.002zm2.208-11.587l-.837-.836h-2.688l-.837.836v2.688l.4.4-.4.4v2.688l.837.837h2.687l.836-.837v-2.687l-.4-.402.4-.4v-2.688l.002.001zm-.873 5.815l-.326.326h-1.964l-.326-.325v-1.964l.326-.325h1.964l.326.326v1.965-.003zm0-3.49l-.326.327h-1.964l-.326-.326v-1.964l.326-.326h1.964l.326.326v1.964-.001zm-36.77 9.261a8.503 8.503 0 11.001-17.006 8.504 8.504 0 11.001 17.009l-.002-.003zm2.487-10.11l-.001-2.312h-4.362v.872h3.49v1.176l-3.488 5.233v.568h.727l3.634-5.537zm-37.92 10.11a8.504 8.504 0 118.503-8.503 8.503 8.503 0 01-8.503 8.505v-.002zm-.916-11.55h1.965l.325.29h.872v-.326l-.837-.836h-2.687l-.837.836v6.176l.837.837h2.687l.837-.837v-2.687l-.837-.838h-2.652v-2.29l.326-.326.001.001zm0 3.49h1.965l.325.325v1.965l-.326.326h-1.966l-.326-.325v-1.964l.326-.325.002-.002zm-69.955 8.059a8.503 8.503 0 11.001-17.007 8.504 8.504 0 018.505 8.504 8.504 8.504 0 01-8.504 8.505l-.002-.002zm2.195-11.549l.001-.87h-4.36v4.36h3.163l.326.325-.002 1.964-.325.325h-1.966l-.326-.29h-.872v.325l.837.837h2.687l.837-.837v-2.686l-.837-.837h-2.653v-2.616h3.49zm-37.627 11.549a8.504 8.504 0 118.502-8.503 8.504 8.504 0 01-8.504 8.505l.002-.002zm1.553-7.77v-4.65h-1.22l-3.14 3.766v1.757h3.488v2.326h.873v-2.326h.582v-.872h-.58l-.003-.001zm-.872 0h-2.616v-.57l2.616-3.14v3.71zm-71.549 7.77a8.504 8.504 0 110-17.007 8.504 8.504 0 018.504 8.504 8.503 8.503 0 01-8.504 8.505v-.002zm2.068-8.897l-.003-2.684-.837-.837H202.7l-.837.836v.325h.872l.326-.29h1.966l.326.326v1.964l-.325.326h-1.71v.873h1.71l.326.325v1.964l-.325.325h-1.965l-.326-.29h-.872v.325l.837.837h2.687l.837-.837v-2.688l-.4-.4.4-.4zm-37.5 8.897a8.504 8.504 0 118.502-8.503 8.504 8.504 0 01-8.504 8.505l.002-.002zm2.345-9.479v-2.103l-.837-.837h-2.687l-.838.836v.325h.872l.327-.29h1.965l.326.326v1.383l-3.488 3.488v1.78h4.36v-.873h-3.488v-.545l3.488-3.49zm-37.778 9.479a8.504 8.504 0 110-17.007 8.504 8.504 0 018.504 8.504 8.504 8.504 0 01-8.504 8.505v-.002zm.906-4.572l-.001-7.849h-2.182v.872h1.31v6.977h.873z" fill="#000"/>
        </g>
        <path d="M552.724 67.612a1.77 1.77 0 110 3.543 1.771 1.771 0 010-3.544v.001zm-70.866 0a1.77 1.77 0 110 3.543 1.771 1.771 0 010-3.544v.001zm-70.866 0a1.77 1.77 0 110 3.543 1.772 1.772 0 010-3.544v.001zm-70.866 0a1.77 1.77 0 110 3.543 1.773 1.773 0 010-3.544v.001zm29.754-16.771c-5.78 0-10.54-4.33-11.24-9.92h-17.105v-2.836h17.106c.7-5.592 5.46-9.92 11.24-9.92s10.543 4.328 11.242 9.92h17.106v2.835h-17.106c-.7 5.59-5.46 9.92-11.24 9.92l-.003.001zm.02-3.781l.001.001a7.578 7.578 0 003.352-.777l.12-.057v-3.27h3.268l.06-.12a7.625 7.625 0 000-6.707l-.06-.12h-3.268v-3.27l-.12-.058a7.629 7.629 0 00-6.707 0l-.118.057v3.27h-3.27l-.06.12a7.632 7.632 0 000 6.707l.06.12h3.268v3.27l.12.058a7.583 7.583 0 003.354.776zm70.851 3.782c-5.78 0-10.542-4.33-11.24-9.92H412.4v-2.836h17.107c.7-5.592 5.46-9.92 11.24-9.92s10.542 4.328 11.24 9.92h17.107v2.835h-17.106c-.7 5.59-5.46 9.92-11.24 9.92l.003.001zm.015-3.782l-.002.001a7.59 7.59 0 003.354-.777l.118-.057v-3.27h3.27l.058-.12a7.619 7.619 0 000-6.707l-.057-.12h-3.27v-3.27l-.118-.058a7.629 7.629 0 00-6.707 0l-.118.057v3.27h-3.27l-.06.12a7.632 7.632 0 000 6.707l.06.12h3.268v3.27l.12.058a7.583 7.583 0 003.354.776zm70.849 3.783c-5.78 0-10.54-4.33-11.24-9.92h-17.106v-2.836h17.106c.7-5.592 5.46-9.92 11.24-9.92s10.542 4.328 11.24 9.92h17.107v2.835h-17.106c-.7 5.59-5.46 9.92-11.24 9.92l-.001.001zm.017-3.783v.001a7.586 7.586 0 003.353-.777l.118-.057v-3.27h3.27l.06-.12a7.632 7.632 0 000-6.707l-.06-.12h-3.268v-3.27l-.12-.058a7.629 7.629 0 00-6.707 0l-.118.057v3.27h-3.27l-.06.12a7.632 7.632 0 000 6.707l.06.12h3.268v3.27l.12.058a7.586 7.586 0 003.354.776zm99.196-6.138H593.72c-.7 5.59-5.46 9.92-11.24 9.92s-10.542-4.33-11.24-9.92h-17.107v-2.836h17.106c.698-5.592 5.46-9.92 11.24-9.92s10.54 4.328 11.24 9.92h17.106v2.835l.003.001zm-28.33 6.138v.001a7.572 7.572 0 003.352-.777l.12-.057v-3.27h3.267l.06-.12a7.625 7.625 0 000-6.707l-.058-.12h-3.267v-3.27l-.12-.058a7.629 7.629 0 00-6.707 0l-.12.057v3.27h-3.268l-.06.12a7.625 7.625 0 000 6.707l.058.12h3.27v3.27l.12.058a7.578 7.578 0 003.353.776z" fill="#000"/>
        <path d="M369.88 10.68c-15.634 0-28.345 12.72-28.345 28.345 0 15.636 12.72 28.347 28.346 28.347s28.348-12.722 28.348-28.347c.01-15.635-12.712-28.346-28.347-28.346l-.002.001zm70.867 0c-15.635 0-28.346 12.72-28.346 28.346 0 15.635 12.722 28.346 28.347 28.346 15.625 0 28.347-12.72 28.347-28.346.01-15.636-12.71-28.347-28.347-28.347l-.001.001zm70.867 0c-15.636 0-28.347 12.72-28.347 28.346 0 15.635 12.722 28.346 28.347 28.346 15.625 0 28.346-12.72 28.346-28.346.01-15.636-12.71-28.347-28.346-28.347v.001zm70.866 0c-15.636 0-28.347 12.72-28.347 28.346 0 15.635 12.722 28.346 28.347 28.346 15.625 0 28.346-12.72 28.346-28.346.01-15.636-12.71-28.347-28.346-28.347v.001z" stroke="#000" stroke-linecap="square"/>
        <path d="M58.76 1.384H78.6v1.924H58.76V1.384zm35.432 0h19.843v1.924H94.192V1.384zm35.433 0h19.843v1.924h-19.843V1.384zm35.465 0h19.844v1.924H165.09V1.384z" stroke="#000"/>
        <path d="M15.55 74.452h602.37m-566.936 0v92.134m35.433-92.134v92.134m35.433-92.134v92.134m35.43-.001v-35.43m0-17.01v-39.69m35.44 92.13v-35.43m0-17.01v-39.69m35.43 92.13v-35.43m0-17.01v-39.69m70.86 92.13v-35.43m0-17.01v-39.69m35.44 92.13v-35.43m0-17.01V3.595m70.86 162.99v-35.43m0-17.01V3.595m35.44 162.99v-35.43m0-17.01v-39.69m35.43 92.13v-35.43m0-17.01V3.595m35.43 162.981v-92.12m-141.73 92.12v-92.12m-106.3 92.12v-92.12m283.47 92.129v-35.43m0-17.01V3.595m35.43 162.99v-35.43m0-17.01v-39.69m-425.2 39.69h-.23m.23 17.01h-.23" stroke="#000" stroke-linecap="square"/>
        <path stroke="#000" d="M15.55 3.692v162.99h602.37V3.692zm-.556 26.354H1.384v-6.24h13.61m53.754 143.159h35.34v1.816h-35.34z"/>
        <path d="M78.13 42.81a1.416 1.416 0 111.418-1.416c0 .783-.635 1.417-1.418 1.417v-.001zm0-4.505a1.417 1.417 0 110-2.836 1.417 1.417 0 010 2.837v-.001zm5.456 4.507a1.416 1.416 0 110-2.833 1.416 1.416 0 01-.001 2.833h.001zm0-4.506a1.416 1.416 0 110-2.835 1.416 1.416 0 01-.001 2.836l.001-.001zm5.456 4.507a1.417 1.417 0 110-2.834 1.417 1.417 0 010 2.834zm0-4.506a1.417 1.417 0 110-2.836 1.417 1.417 0 010 2.837v-.001zm5.457 4.507c-.784 0-1.42-.634-1.42-1.417a1.418 1.418 0 012.836 0c0 .783-.635 1.417-1.417 1.417h.001zm0-4.506c-.784 0-1.42-.634-1.42-1.417a1.419 1.419 0 012.836 0c0 .782-.635 1.418-1.417 1.418l.001-.001z" fill="#000"/>
    </g>
</svg>
