<?xml version="1.0" encoding="UTF-8"?>
<svg width="619px" height="170px" viewBox="0 0 619 170" version="1.1" xmlns="http://www.w3.org/2000/svg" xmlns:xlink="http://www.w3.org/1999/xlink">
    <!-- Generator: Sketch 51.3 (57544) - http://www.bohemiancoding.com/sketch -->
    <title>op-z 2</title>
    <desc>Created with Sketch.</desc>
    <defs></defs>
    <g id="Page-1" stroke="none" stroke-width="1" fill="none" fill-rule="evenodd">
        <g id="op-z" transform="translate(1.000000, 1.000000)" fill-rule="nonzero">
            <g id="Icons" transform="translate(22.000000, 10.000000)" fill="#000000">
                <g id="Group" transform="translate(0.000000, 51.000000)">
                    <path d="M45.555,57.3 L49.625,60.208 L49.625,61.08 L45.555,63.987 L43.243,63.987 L43.243,57.3 L45.555,57.3 Z M48.752,60.64 L45.262,58.17 L44.114,58.17 L44.114,63.112 L45.264,63.112 L48.752,60.64 Z" id="Combined-Shape"></path>
                    <polygon id="Path" points="6.887 36.894 9.795 36.894 9.795 31.954 6.887 31.954 6.887 31.081 13.574 31.081 13.574 31.953 10.667 31.953 10.667 36.893 13.574 36.893 13.574 37.766 6.887 37.766"></polygon>
                    <path d="M12.052,60.644 C12.052,61.624 11.259,62.416 10.282,62.416 C9.302,62.416 8.509,61.624 8.509,60.646 C8.509,59.668 9.301,58.873 10.279,58.873 C11.259,58.873 12.051,59.665 12.051,60.643 L12.052,60.644 Z" id="Path"></path>
                    <polygon id="Path" points="14.218 87.28 6.368 87.28 6.368 86.408 14.218 86.408"></polygon>
                    <polygon id="Path" points="49.65 87.28 46.162 87.28 46.162 90.77 45.29 90.77 45.29 87.28 41.8 87.28 41.8 86.408 45.29 86.408 45.29 82.918 46.162 82.918 46.162 86.408 49.652 86.408 49.652 87.28"></polygon>
                    <polygon id="Path" points="83.617 87.3 81.582 84.948 81.582 90.788 80.71 90.788 80.71 84.948 78.676 87.3 77.513 87.3 81.147 82.94 84.781 87.3 83.619 87.3"></polygon>
                    <path d="M84.487,57.3 L84.487,63.987 L77.801,63.987 L77.801,57.3 L84.488,57.3 L84.487,57.3 Z M78.675,58.17 L78.675,63.112 L83.617,63.112 L83.617,58.17 L78.675,58.17 Z" id="Combined-Shape"></path>
                    <path d="M8.087,0.439 L9.914,0.439 C10.624,0.439 11.148,0.547 11.499,0.772 C12.019,1.104 12.227,1.592 12.227,2.248 C12.227,3.04 11.777,3.643 11.03,3.895 C10.643,4.021 10.184,4.048 9.725,4.048 L8.672,4.048 L8.672,6.948 L8.087,6.948 L8.087,0.438 L8.087,0.439 Z M10.832,3.425 C11.337,3.245 11.598,2.705 11.598,2.192 C11.598,1.112 10.842,0.922 9.941,0.922 L8.673,0.922 L8.673,3.56 L9.646,3.56 C9.996,3.56 10.5,3.542 10.833,3.425 L10.832,3.425 Z M3.786,7.048 C1.769,7.048 0.932,5.518 0.932,3.681 C0.932,1.889 1.822,0.323 3.786,0.323 C5.829,0.323 6.648,1.743 6.648,3.626 C6.648,5.463 5.828,7.046 3.786,7.046 L3.786,7.048 Z M3.786,0.814 C2.166,0.814 1.58,2.274 1.58,3.677 C1.58,5.091 2.156,6.557 3.785,6.557 C5.425,6.557 6,5.099 6,3.677 C6,2.21 5.47,0.814 3.786,0.814 Z M15.728,4.28 L12.951,4.28 L12.951,3.802 L15.731,3.802 L15.731,4.28 L15.728,4.28 Z M20.76,6.95 L16.087,6.95 L16.087,6.346 L19.977,0.936 L16.347,0.936 L16.347,0.44 L20.66,0.44 L20.66,0.962 L16.68,6.454 L20.76,6.454 L20.76,6.949 L20.76,6.95 Z" id="Combined-Shape"></path>
                </g>
                <g id="Group" transform="translate(112.000000, 118.000000)">
                    <g id="Group-20" transform="translate(0.000000, 3.000000)">
                        <path d="M1.816,3.4 L0.946,2.53 L0.946,1.66 L1.816,0.788 L2.686,0.788 L3.558,1.658 L3.558,2.53 L2.688,3.402 L1.816,3.402 L1.816,3.4 Z M8.204,2.53 L7.332,3.4 L6.462,3.4 L5.59,2.53 L5.59,1.66 L6.462,0.788 L7.332,0.788 L8.205,1.658 L8.205,2.53 L8.204,2.53 Z" id="Combined-Shape"></path>
                        <path d="M4.579,18.633 C3.599,18.633 2.807,17.841 2.807,16.863 C2.807,15.885 3.601,15.09 4.579,15.09 C5.557,15.09 6.349,15.883 6.349,16.862 C6.349,17.842 5.559,18.632 4.579,18.632 L4.579,18.633 Z" id="Path"></path>
                    </g>
                    <g id="Group-21" transform="translate(36.000000, 4.000000)">
                        <path d="M4.011,17.633 C3.033,17.633 2.241,16.841 2.241,15.863 C2.241,14.885 3.033,14.09 4.011,14.09 C4.991,14.09 5.783,14.883 5.783,15.862 C5.783,16.842 4.989,17.632 4.011,17.632 L4.011,17.633 Z" id="Path"></path>
                        <polygon id="Path" points="7.931 1.53 0.087 1.53 0.087 0.66 7.929 0.66 7.929 1.53"></polygon>
                    </g>
                    <g id="Group-22" transform="translate(70.000000, 2.000000)">
                        <path d="M5.443,19.633 C4.465,19.633 3.673,18.841 3.673,17.863 C3.673,16.885 4.465,16.09 5.443,16.09 C6.423,16.09 7.215,16.883 7.215,17.862 C7.215,18.842 6.422,19.632 5.443,19.632 L5.443,19.633 Z" id="Path"></path>
                        <path d="M10.083,5.853 L0.787,5.853 L0.787,0.335 L10.082,0.335 L10.082,5.855 L10.083,5.853 Z M7.18,2.078 L8.052,2.078 L8.052,2.658 L6.312,3.821 L6.312,4.984 L8.922,4.984 L8.922,4.114 L7.18,4.114 L7.18,4.112 L8.923,2.952 L8.923,1.79 L8.345,1.21 L6.89,1.21 L6.31,1.79 L6.31,2.66 L7.18,2.66 L7.18,2.078 Z M1.662,4.402 L2.242,4.982 L3.404,3.822 L3.694,3.822 L4.857,4.982 L5.437,4.402 L4.277,3.24 L4.277,2.95 L5.437,1.788 L4.857,1.208 L3.695,2.368 L3.405,2.368 L2.243,1.208 L1.663,1.788 L2.823,2.95 L2.823,3.24 L1.662,4.402 Z" id="Combined-Shape"></path>
                    </g>
                    <g id="Group-23" transform="translate(106.000000, 0.000000)">
                        <path d="M8.528,1.347 L3.748,4.107 L3.313,3.352 L8.093,0.592 L8.528,1.347 Z M3.019,5.53 L2.147,6.402 L1.277,6.402 L0.404,5.53 L0.404,4.66 L1.276,3.788 L2.146,3.788 L3.016,4.658 L3.016,5.53 L3.019,5.53 Z M9.406,5.53 L3.889,5.53 L3.889,4.66 L9.409,4.66 L9.409,5.53 L9.406,5.53 Z" id="Combined-Shape"></path>
                        <path d="M4.876,21.633 C3.896,21.633 3.103,20.841 3.103,19.863 C3.103,18.885 3.896,18.09 4.875,18.09 C5.852,18.09 6.645,18.883 6.645,19.862 C6.645,20.842 5.852,21.632 4.875,21.632 L4.876,21.633 Z" id="Path"></path>
                    </g>
                    <g id="Group-24" transform="translate(142.000000, 2.000000)">
                        <path d="M4.308,19.633 C3.328,19.633 2.536,18.841 2.536,17.863 C2.536,16.885 3.329,16.09 4.308,16.09 C5.286,16.09 6.078,16.883 6.078,17.862 C6.078,18.842 5.286,19.632 4.308,19.632 L4.308,19.633 Z" id="Path"></path>
                        <path d="M8.524,5.943 L0.101,5.943 L0.101,4.265 L7.071,0.135 L8.524,0.135 L8.524,5.945 L8.524,5.943 Z M0.976,5.072 L7.656,5.072 L7.656,1.006 L7.366,1.006 L0.976,4.782 L0.976,5.072 Z" id="Combined-Shape"></path>
                    </g>
                    <g id="Group-25" transform="translate(177.000000, 2.000000)">
                        <path d="M4.743,19.633 C3.763,19.633 2.97,18.841 2.97,17.863 C2.97,16.885 3.764,16.09 4.742,16.09 C5.72,16.09 6.514,16.883 6.514,17.862 C6.514,18.842 5.72,19.632 4.742,19.632 L4.743,19.633 Z" id="Path"></path>
                        <path d="M8.878,5.893 L0.456,5.893 L0.456,0.083 L1.908,0.083 L8.878,4.229 L8.878,5.892 L8.878,5.893 Z M1.33,0.956 L1.33,5.022 L8.01,5.022 L8.01,4.732 L1.62,0.956 L1.33,0.956 Z" id="Combined-Shape"></path>
                    </g>
                    <g id="Group-26" transform="translate(212.000000, 1.000000)">
                        <path d="M5.179,20.633 C4.199,20.633 3.406,19.841 3.406,18.863 C3.406,17.885 4.199,17.09 5.178,17.09 C6.155,17.09 6.948,17.883 6.948,18.862 C6.948,19.842 6.155,20.632 5.178,20.632 L5.179,20.633 Z" id="Path"></path>
                        <polygon id="Path" points="9.651 1.735 6.746 1.735 6.746 7.255 3.551 7.255 3.551 4.93 0.937 4.93 0.937 4.06 4.422 4.06 4.422 6.383 5.875 6.383 5.875 0.863 9.651 0.863 9.651 1.735"></polygon>
                    </g>
                    <g id="Group-27" transform="translate(247.000000, 3.000000)">
                        <path d="M3.136,2.531 L2.264,3.403 L1.394,3.403 L0.522,2.531 L0.522,1.661 L1.392,0.789 L2.264,0.789 L3.136,1.659 L3.136,2.531 Z M4.008,2.531 L4.008,1.661 L7.196,1.661 L7.196,2.531 L4.008,2.531 Z M10.69,2.531 L9.818,3.403 L8.948,3.403 L8.076,2.531 L8.076,1.661 L8.946,0.789 L9.818,0.789 L10.69,1.659 L10.69,2.531 Z" id="Combined-Shape"></path>
                        <path d="M5.611,18.634 C4.633,18.634 3.841,17.842 3.841,16.864 C3.841,15.886 4.633,15.091 5.611,15.091 C6.591,15.091 7.384,15.884 7.384,16.863 C7.384,17.843 6.59,18.633 5.612,18.633 L5.611,18.634 Z" id="Path"></path>
                    </g>
                    <g id="Group-28" transform="translate(284.000000, 1.000000)">
                        <path d="M4.047,20.634 C3.067,20.634 2.275,19.842 2.275,18.864 C2.275,17.886 3.068,17.091 4.047,17.091 C5.025,17.091 5.817,17.884 5.817,18.863 C5.817,19.843 5.025,20.633 4.047,20.633 L4.047,20.634 Z" id="Path"></path>
                        <polygon id="Path" points="7.967 4.248 7.094 4.248 7.094 2.215 6.224 1.329 5.351 1.329 4.479 2.215 4.479 6.352 3.097 7.735 1.504 7.735 0.122 6.353 0.122 4.25 0.995 4.25 0.995 5.993 1.865 6.863 2.737 6.863 3.609 5.993 3.609 1.856 4.991 0.46 6.583 0.46 7.965 1.856 7.965 4.25"></polygon>
                    </g>
                    <g id="Group-29" transform="translate(319.000000, 0.000000)">
                        <path d="M1.197,8.726 L0.327,7.856 L0.327,6.694 L1.197,5.822 L2.357,5.822 L2.357,2.046 L3.231,2.046 L3.231,7.856 L2.358,8.726 L1.198,8.726 L1.197,8.726 Z M7.878,5.822 L7.005,6.692 L5.845,6.692 L4.973,5.822 L4.973,4.662 L5.843,3.788 L7.005,3.788 L7.005,0.013 L7.878,0.013 L7.878,5.823 L7.878,5.822 Z" id="Combined-Shape"></path>
                        <path d="M4.481,21.636 C3.501,21.636 2.709,20.843 2.709,19.864 C2.709,18.885 3.501,18.092 4.479,18.092 C5.459,18.092 6.252,18.885 6.252,19.864 C6.252,20.844 5.458,21.634 4.479,21.634 L4.481,21.636 Z" id="Path"></path>
                    </g>
                    <g id="Group-30" transform="translate(355.000000, 1.000000)">
                        <path d="M1.245,5.404 L0.665,4.824 L0.375,4.532 L0.375,3.662 L1.245,2.79 L2.117,2.79 L2.987,3.66 L2.987,4.532 L2.117,5.404 L1.245,5.404 Z M2.697,0.175 L5.893,0.175 L7.345,1.557 L7.345,1.917 L6.473,1.917 L5.531,1.047 L3.058,1.047 L2.116,1.917 L1.246,1.917 L1.246,1.557 L2.696,0.175 L2.697,0.175 Z M8.215,4.533 L7.345,5.405 L6.473,5.405 L5.893,4.825 L5.603,4.533 L5.603,3.663 L6.473,2.791 L7.345,2.791 L8.215,3.661 L8.215,4.533 Z" id="Combined-Shape"></path>
                        <path d="M3.912,20.636 C2.934,20.636 2.142,19.844 2.142,18.866 C2.142,17.888 2.934,17.093 3.912,17.093 C4.892,17.093 5.684,17.886 5.684,18.865 C5.684,19.845 4.891,20.635 3.914,20.635 L3.912,20.636 Z" id="Path"></path>
                    </g>
                    <g id="Group-31" transform="translate(391.000000, 1.000000)">
                        <path d="M3.345,20.636 C2.367,20.636 1.575,19.844 1.575,18.866 C1.575,17.888 2.367,17.093 3.345,17.093 C4.325,17.093 5.117,17.886 5.117,18.865 C5.117,19.845 4.324,20.635 3.347,20.635 L3.345,20.636 Z" id="Path"></path>
                        <polygon id="Path" points="2.469 8.143 1.787 7.607 4.167 4.527 0.972 4.527 4.414 0.053 5.101 0.583 2.714 3.666 5.909 3.666"></polygon>
                    </g>
                    <g id="Group-32" transform="translate(425.000000, 2.000000)">
                        <path d="M4.779,19.636 C3.799,19.636 3.007,18.844 3.007,17.866 C3.007,16.888 3.8,16.093 4.779,16.093 C5.757,16.093 6.549,16.886 6.549,17.865 C6.549,18.845 5.757,19.635 4.779,19.635 L4.779,19.636 Z" id="Path"></path>
                        <polygon id="Path" points="6.215 5.142 6.215 3.978 7.113 3.106 4.188 3.106 4.188 6.013 0.416 6.013 0.416 5.143 3.316 5.143 3.316 2.233 7.116 2.233 6.216 1.363 6.216 0.199 9.123 2.671 6.216 5.141"></polygon>
                    </g>
                    <g id="Group-33" transform="translate(462.000000, 1.000000)">
                        <path d="M3.212,20.635 C2.232,20.635 1.44,19.843 1.44,18.865 C1.44,17.887 2.233,17.092 3.212,17.092 C4.19,17.092 4.982,17.885 4.982,18.864 C4.982,19.844 4.19,20.634 3.212,20.634 L3.212,20.635 Z" id="Path"></path>
                        <polygon id="Path" points="6.106 3.375 3.199 3.375 3.199 6.017 4.071 5.117 5.233 5.117 2.763 8.027 0.29 5.117 1.452 5.117 2.325 6.017 2.325 2.5 5.232 2.5 5.232 0.167 6.104 0.167 6.104 3.372"></polygon>
                    </g>
                </g>
                <g id="Group" transform="translate(41.000000, 66.000000)">
                    <g id="Group-9" transform="translate(180.000000, 1.000000)">
                        <polygon id="Path" points="0.608 4.963 1.48 4.091 2.64 4.091 2.64 0.316 3.512 0.316 3.512 6.126 2.642 6.996 1.479 6.996 0.606 6.126 0.606 4.964"></polygon>
                        <path d="M1.88,16.65 C2.858,16.65 3.65,17.442 3.65,18.42 C3.65,19.398 2.858,20.192 1.88,20.192 C0.9,20.192 0.108,19.4 0.108,18.422 C0.108,17.444 0.901,16.65 1.878,16.65 L1.88,16.65 Z" id="Path"></path>
                    </g>
                    <g id="Group-8" transform="translate(144.000000, 1.000000)">
                        <path d="M0.098,0.313 L3.758,0.313 L5.036,1.378 L5.036,2.8 L4.119,3.64 L5.035,4.48 L5.035,5.782 L3.785,6.994 L0.097,6.994 L0.097,0.314 L0.098,0.313 Z M4.165,4.788 L3.437,4.088 L0.97,4.088 L0.97,6.123 L3.437,6.123 L4.165,5.473 L4.165,4.788 Z M4.165,2.49 L4.165,1.806 L3.437,1.186 L0.97,1.186 L0.97,3.218 L3.437,3.218 L4.165,2.49 Z" id="Combined-Shape"></path>
                        <path d="M4.218,18.421 C4.218,19.401 3.425,20.193 2.446,20.193 C1.468,20.193 0.676,19.401 0.676,18.423 C0.676,17.445 1.468,16.651 2.446,16.651 C3.426,16.651 4.218,17.443 4.218,18.421 Z" id="Path"></path>
                    </g>
                    <g id="Group-4">
                        <path d="M2.943,19.423 C2.943,18.445 3.736,17.653 4.715,17.653 C5.693,17.653 6.485,18.445 6.485,19.423 C6.485,20.401 5.693,21.195 4.715,21.195 C3.735,21.195 2.943,20.403 2.943,19.425 L2.943,19.423 Z" id="Path"></path>
                        <path d="M0.76,2.538 L3.012,0.285 L6.347,0.285 L8.6,2.539 L8.6,5.874 L6.347,8.126 L5.115,8.126 L5.115,8.996 L4.245,8.996 L4.245,8.126 L3.012,8.126 L0.759,5.873 L0.759,2.537 L0.76,2.538 Z M4.244,7.25 L4.244,5.51 L3.374,4.637 L3.374,3.767 L3.664,3.477 L4.244,2.895 L5.114,2.895 L5.986,3.765 L5.986,4.637 L5.116,5.509 L5.116,7.249 L5.986,7.249 L7.728,5.509 L7.728,2.894 L5.986,1.152 L3.373,1.152 L1.63,2.894 L1.63,5.508 L3.373,7.248 L4.244,7.25 Z" id="Combined-Shape"></path>
                    </g>
                    <g id="Group-5" transform="translate(36.000000, 1.000000)">
                        <path d="M2.374,18.423 C2.374,17.445 3.167,16.653 4.144,16.653 C5.124,16.653 5.917,17.445 5.917,18.423 C5.917,19.401 5.124,20.195 4.145,20.195 C3.167,20.195 2.375,19.403 2.375,18.425 L2.374,18.423 Z" id="Path"></path>
                        <path d="M7.784,4.403 L4.58,4.403 L4.58,7.307 L3.71,7.307 L3.71,4.4 L0.508,4.4 L0.508,0.043 L7.784,0.043 L7.784,4.4 L7.784,4.403 Z M1.38,0.914 L1.379,3.528 L6.912,3.528 L6.912,0.914 L1.38,0.914 Z" id="Combined-Shape"></path>
                    </g>
                    <g id="Group-6" transform="translate(71.000000, 0.000000)">
                        <path d="M2.809,19.42 C2.809,18.442 3.601,17.65 4.579,17.65 C5.557,17.65 6.349,18.442 6.349,19.42 C6.349,20.398 5.557,21.192 4.579,21.192 C3.599,21.192 2.807,20.4 2.807,19.422 L2.809,19.42 Z" id="Path"></path>
                        <polygon id="Path" points="8.204 4.218 5.01 5.67 5.01 8.284 4.14 8.284 4.14 5.67 0.945 4.218 0.945 3.928 8.205 3.928 8.205 4.218"></polygon>
                        <polygon id="Path" points="8.204 3.058 0.944 3.058 0.944 2.766 4.139 1.314 4.139 0.444 5.009 0.444 5.009 1.314 8.205 2.766 8.205 3.056"></polygon>
                    </g>
                    <g id="Group-7" transform="translate(106.000000, 1.000000)">
                        <path d="M5.013,16.651 C5.993,16.651 6.785,17.443 6.785,18.421 C6.785,19.399 5.992,20.193 5.013,20.193 C4.035,20.193 3.243,19.401 3.243,18.423 C3.243,17.445 4.035,16.651 5.013,16.651 Z" id="Path"></path>
                        <path d="M3.733,6.995 L3.733,0.315 L4.605,0.315 L4.605,6.995 L3.733,6.995 Z M5.476,6.125 L5.476,1.185 L6.346,1.185 L6.346,6.125 L5.476,6.125 Z M0.246,3.218 L1.988,3.218 L1.988,2.348 L2.86,2.348 L2.86,4.961 L1.988,4.961 L1.988,4.091 L0.246,4.091 L0.246,3.219 L0.246,3.218 Z M9.831,4.09 L8.088,4.09 L8.088,5.542 L7.218,5.542 L7.218,1.766 L8.088,1.766 L8.088,3.218 L9.831,3.218 L9.831,4.088 L9.831,4.09 Z" id="Combined-Shape"></path>
                    </g>
                    <g id="Group-10" transform="translate(212.000000, 1.000000)">
                        <path d="M3.991,3.205 L4.864,2.335 L5.734,2.335 L6.606,3.205 L6.606,4.077 L5.736,4.947 L4.864,4.947 L3.992,4.077 L3.992,3.205 L3.991,3.205 Z M0.502,4.948 L1.374,4.078 L2.244,4.078 L3.116,4.948 L3.116,5.82 L2.246,6.69 L1.374,6.69 L0.502,5.82 L0.502,4.948 Z M10.087,2.333 L9.217,3.205 L8.345,3.205 L7.475,2.335 L7.475,1.463 L8.345,0.593 L9.215,0.593 L10.088,1.463 L10.088,2.333 L10.087,2.333 Z" id="Combined-Shape"></path>
                        <path d="M5.313,16.65 C6.291,16.65 7.083,17.442 7.083,18.42 C7.083,19.398 6.291,20.192 5.313,20.192 C4.333,20.192 3.541,19.4 3.541,18.422 C3.541,17.444 4.334,16.65 5.313,16.65 Z" id="Path"></path>
                    </g>
                    <g id="Group-11" transform="translate(247.000000, 1.000000)">
                        <path d="M0.84,1.765 L2.292,0.315 L4.035,0.315 L5.197,1.475 L5.197,1.765 L4.325,1.765 L3.745,1.185 L2.583,1.185 L1.711,2.055 L1.711,5.252 L2.581,6.122 L3.744,6.122 L4.324,5.542 L5.197,5.542 L5.197,5.832 L4.035,6.994 L2.292,6.994 L0.84,5.542 L0.84,1.766 L0.84,1.765 Z M10.426,6.993 L9.556,6.993 L9.556,4.089 L6.941,4.089 L6.941,6.993 L6.069,6.993 L6.069,0.313 L6.942,0.313 L6.942,3.217 L9.556,3.217 L9.556,0.312 L10.426,0.312 L10.426,6.992 L10.426,6.993 Z" id="Combined-Shape"></path>
                        <path d="M5.743,16.65 C6.72,16.65 7.513,17.442 7.513,18.42 C7.513,19.398 6.72,20.192 5.743,20.192 C4.763,20.192 3.97,19.4 3.97,18.422 C3.97,17.444 4.764,16.65 5.743,16.65 Z" id="Path"></path>
                    </g>
                    <g id="Group-12" transform="translate(282.000000, 1.000000)">
                        <path d="M4.406,18.421 C4.406,17.443 5.199,16.651 6.178,16.651 C7.155,16.651 7.948,17.443 7.948,18.421 C7.948,19.399 7.155,20.193 6.178,20.193 C5.198,20.193 4.405,19.401 4.405,18.423 L4.406,18.421 Z" id="Path"></path>
                        <path d="M11.856,4.091 L9.816,4.091 L9.816,7.286 L2.568,7.286 L2.568,4.09 L0.526,4.09 L0.526,3.218 L2.566,3.218 L2.566,0.023 L9.814,0.023 L9.814,3.218 L11.854,3.218 L11.854,4.088 L11.856,4.091 Z M3.44,6.413 L8.944,6.413 L8.944,0.893 L3.44,0.893 L3.44,6.413 Z M5.757,2.637 L5.757,1.767 L6.629,1.767 L6.627,5.542 L5.757,5.542 L5.757,2.637 Z" id="Combined-Shape"></path>
                    </g>
                    <g id="Group-13" transform="translate(317.000000, 1.000000)">
                        <path d="M6.612,20.193 C5.635,20.193 4.842,19.401 4.842,18.423 C4.842,17.445 5.635,16.651 6.612,16.651 C7.592,16.651 8.385,17.443 8.385,18.421 C8.385,19.399 7.591,20.193 6.613,20.193 L6.612,20.193 Z" id="Path"></path>
                        <path d="M12.3,4.091 L10.26,4.091 L10.26,7.286 L3.012,7.286 L3.012,4.09 L0.972,4.09 L0.972,3.218 L3.012,3.218 L3.012,0.023 L10.259,0.023 L10.259,3.218 L12.299,3.218 L12.299,4.088 L12.3,4.091 Z M3.882,6.413 L9.386,6.413 L9.386,0.893 L3.882,0.893 L3.882,6.413 Z M5.327,2.347 L5.907,1.767 L7.363,1.767 L7.941,2.347 L7.941,3.509 L6.199,4.669 L7.942,4.669 L7.942,5.541 L5.332,5.541 L5.332,4.379 L7.072,3.217 L7.072,2.637 L6.197,2.637 L6.197,3.217 L5.327,3.217 L5.327,2.347 Z" id="Combined-Shape"></path>
                    </g>
                    <g id="Group-14" transform="translate(354.000000, 2.000000)">
                        <path d="M3.275,17.422 C3.275,16.444 4.068,15.652 5.047,15.652 C6.025,15.652 6.817,16.444 6.817,17.422 C6.817,18.4 6.025,19.194 5.047,19.194 C4.067,19.194 3.275,18.402 3.275,17.424 L3.275,17.422 Z" id="Path"></path>
                        <path d="M9.595,3.596 L8.435,4.758 L1.755,4.758 L0.593,3.598 L0.593,1.854 L1.755,0.692 L3.498,0.692 L4.66,1.854 L4.66,3.596 L4.37,3.886 L5.822,3.886 L5.53,3.596 L5.53,1.854 L6.692,0.692 L8.435,0.692 L9.597,1.854 L9.597,3.597 L9.595,3.596 Z M7.05,1.56 L6.4,2.213 L6.4,3.233 L7.05,3.885 L8.072,3.885 L8.722,3.235 L8.722,2.213 L8.072,1.561 L7.05,1.56 Z M2.113,1.56 L1.463,2.213 L1.463,3.233 L2.113,3.885 L3.133,3.885 L3.785,3.235 L3.785,2.213 L3.135,1.561 L2.113,1.56 Z" id="Combined-Shape"></path>
                    </g>
                    <g id="Group-15" transform="translate(391.000000, 1.000000)">
                        <polygon id="Path" points="3.469 4.052 1.579 1.249 1.579 6.996 0.707 6.996 0.707 0.28 1.943 0.28 3.469 2.6 4.995 0.28 6.231 0.28 6.231 6.996 5.359 6.996 5.359 1.249"></polygon>
                        <path d="M5.253,18.422 C5.253,19.402 4.459,20.194 3.481,20.194 C2.501,20.194 1.709,19.402 1.709,18.424 C1.709,17.446 2.501,16.652 3.479,16.652 C4.459,16.652 5.253,17.444 5.253,18.422 Z" id="Path"></path>
                    </g>
                    <g id="Group-16" transform="translate(426.000000, 0.000000)">
                        <path d="M6.987,2.702 L6.987,3.584 L4.635,3.584 L4.635,4.466 L5.223,5.054 L5.223,8.287 L4.341,8.287 L4.341,5.347 L3.459,5.347 L3.459,8.287 L2.579,8.287 L2.579,5.054 L3.165,4.466 L3.165,3.584 L0.815,3.584 L0.815,2.702 L6.987,2.702 Z M3.165,1.668 L3.165,0.786 L3.459,0.492 L4.341,0.492 L4.635,0.786 L4.635,1.668 L4.341,1.962 L3.459,1.962 L3.165,1.668 Z" id="Combined-Shape"></path>
                        <path d="M2.142,19.423 C2.142,18.445 2.934,17.653 3.912,17.653 C4.892,17.653 5.684,18.445 5.684,19.423 C5.684,20.401 4.891,21.195 3.914,21.195 C2.934,21.195 2.141,20.403 2.141,19.425 L2.142,19.423 Z" id="Path"></path>
                    </g>
                    <g id="Group-17" transform="translate(461.000000, 0.000000)">
                        <path d="M2.574,19.423 C2.574,18.445 3.367,17.653 4.346,17.653 C5.324,17.653 6.116,18.445 6.116,19.423 C6.116,20.401 5.324,21.195 4.346,21.195 C3.366,21.195 2.574,20.403 2.574,19.425 L2.574,19.423 Z" id="Path"></path>
                        <path d="M6.044,8.288 L0.61,8.288 L0.61,1.026 L1.772,1.026 L1.772,0.156 L3.559,0.156 L3.559,1.026 L5.257,1.026 L5.257,0.156 L7,0.156 L7,1.026 L8.162,1.026 L8.162,6.052 L6.042,8.287 L6.044,8.288 Z M1.48,7.413 L5.662,7.413 L7.289,5.67 L7.289,1.894 L1.479,1.894 L1.479,7.414 L1.48,7.413 Z M2.932,3.347 L3.512,2.767 L5.46,2.767 L5.46,3.637 L3.803,3.637 L3.803,5.67 L5.46,5.67 L5.46,6.542 L3.513,6.542 L2.933,5.962 L2.933,3.347 L2.932,3.347 Z" id="Combined-Shape"></path>
                    </g>
                    <g id="Group-18" transform="translate(498.000000, 1.000000)">
                        <path d="M2.779,16.652 C3.757,16.652 4.549,17.444 4.549,18.422 C4.549,19.4 3.757,20.194 2.779,20.194 C1.799,20.194 1.007,19.402 1.007,18.424 C1.007,17.446 1.8,16.652 2.779,16.652 Z" id="Path"></path>
                        <path d="M1.767,6.88 L1.767,6.008 L3.8,6.008 L3.8,6.88 L3.22,6.88 L3.22,7.46 L2.348,7.46 L2.348,6.88 L1.768,6.88 L1.767,6.88 Z M3.799,5.427 L1.767,5.427 L0.605,3.394 L0.605,1.361 L1.767,0.198 L3.8,0.198 L4.962,1.36 L4.962,3.392 L3.8,5.425 L3.799,5.427 Z M2.056,1.068 L1.476,1.648 L1.476,3.102 L2.346,4.554 L3.216,4.554 L4.089,3.102 L4.089,1.649 L3.507,1.067 L2.056,1.068 Z" id="Combined-Shape"></path>
                    </g>
                    <g id="Group-19" transform="translate(532.000000, 1.000000)">
                        <path d="M2.44,18.423 C2.44,17.445 3.233,16.653 4.212,16.653 C5.19,16.653 5.982,17.445 5.982,18.423 C5.982,19.401 5.19,20.195 4.212,20.195 C3.232,20.195 2.44,19.403 2.44,18.425 L2.44,18.423 Z" id="Path"></path>
                        <path d="M9.588,5.759 L8.426,5.759 L6.726,4.309 L6.393,4.309 L6.393,6.339 L0.585,6.339 L0.585,0.821 L6.395,0.821 L6.395,2.855 L6.685,2.855 L8.427,1.402 L9.589,1.402 L9.589,5.758 L9.588,5.759 Z M1.453,5.466 L5.52,5.466 L5.563,1.69 L1.453,1.69 L1.453,5.466 Z" id="Combined-Shape"></path>
                    </g>
                </g>
                <g id="Group" transform="translate(44.000000, 0.000000)">
                    <path d="M104.756,1.371 L112.889,1.371 L112.889,6.311 L104.755,6.311 L104.755,1.371 L104.756,1.371 Z M105.628,2.243 L105.628,5.438 L112.018,5.438 L112.018,2.243 L105.628,2.243 Z" id="Combined-Shape"></path>
                    <polygon id="Path" points="38.972 1.565 39.844 1.565 39.844 7.288 38.974 7.288 38.974 1.566"></polygon>
                    <polygon id="Path" points="36.946 0.289 37.818 0.289 37.818 7.289 36.946 7.289"></polygon>
                    <polygon id="Path" points="34.916 2.859 35.789 2.859 35.789 7.289 34.916 7.289"></polygon>
                    <path d="M0.39,0.303 L3.757,0.303 L5.175,1.72 L5.175,3.28 L3.757,4.698 L1.261,4.698 L1.261,7.278 L0.391,7.278 L0.391,0.3 L0.39,0.303 Z M4.303,2.915 L4.303,2.078 L3.396,1.171 L1.261,1.171 L1.261,3.824 L3.397,3.824 L4.303,2.915 Z" id="Combined-Shape"></path>
                    <polygon id="Path" points="41.872 7.29 41 7.29 41 4.433 41.872 4.433 41.872 7.29"></polygon>
                    <path d="M77.578,2.08 L77.011,2.08 L75.551,3.54 L76.124,5.835 L76.124,7.287 L70.9,7.287 L70.9,5.835 L72.35,0.025 L74.675,0.025 L75.307,2.555 L76.399,1.465 L76.396,0.895 L77.012,0.28 L77.578,0.28 L78.193,0.897 L78.193,1.464 L77.577,2.079 L77.578,2.08 Z M73.522,5.572 L72.907,4.956 L74.629,3.234 L74.093,0.897 L72.93,0.897 L71.77,5.981 L71.77,6.417 L75.255,6.417 L75.255,5.982 L74.857,4.239 L73.522,5.572 Z" id="Combined-Shape"></path>
                </g>
            </g>
            <g id="Keys" transform="translate(23.000000, 86.000000)">
                <circle id="Oval" stroke="#000000" stroke-linecap="square" cx="80.148" cy="61.838" r="8.5"></circle>
                <circle id="Oval" stroke="#000000" stroke-linecap="square" cx="576.193" cy="61.867" r="8.5"></circle>
                <circle id="Oval" stroke="#000000" stroke-linecap="square" cx="540.755" cy="61.816" r="8.5"></circle>
                <circle id="Oval" stroke="#000000" stroke-linecap="square" cx="505.317" cy="61.819" r="8.5"></circle>
                <circle id="Oval" stroke="#000000" stroke-linecap="square" cx="469.889" cy="61.82" r="8.5"></circle>
                <circle id="Oval" stroke="#000000" stroke-linecap="square" cx="434.46" cy="61.821" r="8.5"></circle>
                <circle id="Oval" stroke="#000000" stroke-linecap="square" cx="399.032" cy="61.822" r="8.5"></circle>
                <circle id="Oval" stroke="#000000" stroke-linecap="square" cx="363.594" cy="61.825" r="8.5"></circle>
                <circle id="Oval" stroke="#000000" stroke-linecap="square" cx="328.166" cy="61.826" r="8.5"></circle>
                <circle id="Oval" stroke="#000000" stroke-linecap="square" cx="292.737" cy="61.827" r="8.5"></circle>
                <circle id="Oval" stroke="#000000" stroke-linecap="square" cx="257.297" cy="61.869" r="8.5"></circle>
                <circle id="Oval" stroke="#000000" stroke-linecap="square" cx="221.866" cy="61.867" r="8.5"></circle>
                <circle id="Oval" stroke="#000000" stroke-linecap="square" cx="186.436" cy="61.865" r="8.5"></circle>
                <circle id="Oval" stroke="#000000" stroke-linecap="square" cx="151.014" cy="61.834" r="8.5"></circle>
                <circle id="Oval" stroke="#000000" stroke-linecap="square" cx="115.565" cy="61.855" r="8.5"></circle>
                <circle id="Oval" stroke="#000000" stroke-linecap="square" cx="44.72" cy="61.839" r="8.5"></circle>
                <circle id="Oval" stroke="#000000" stroke-linecap="square" cx="9.291" cy="61.84" r="8.5"></circle>
                <circle id="Oval" stroke="#000000" stroke-linecap="square" cx="44.707" cy="35.643" r="8.5"></circle>
                <circle id="Oval" stroke="#000000" stroke-linecap="square" cx="80.138" cy="35.646" r="8.5"></circle>
                <circle id="Oval" stroke="#000000" stroke-linecap="square" cx="9.276" cy="35.641" r="8.5"></circle>
                <circle id="Oval" stroke="#000000" stroke-linecap="square" cx="576.181" cy="9.376" r="8.5"></circle>
                <circle id="Oval" stroke="#000000" stroke-linecap="square" cx="540.764" cy="9.425" r="8.5"></circle>
                <circle id="Oval" stroke="#000000" stroke-linecap="square" cx="505.326" cy="9.43" r="8.5"></circle>
                <circle id="Oval" stroke="#000000" stroke-linecap="square" cx="469.895" cy="9.428" r="8.5"></circle>
                <circle id="Oval" stroke="#000000" stroke-linecap="square" cx="434.465" cy="9.426" r="8.5"></circle>
                <circle id="Oval" stroke="#000000" stroke-linecap="square" cx="399.034" cy="9.424" r="8.5"></circle>
                <circle id="Oval" stroke="#000000" stroke-linecap="square" cx="363.625" cy="9.424" r="8.5"></circle>
                <circle id="Oval" stroke="#000000" stroke-linecap="square" cx="328.166" cy="9.426" r="8.5"></circle>
                <circle id="Oval" stroke="#000000" stroke-linecap="square" cx="292.736" cy="9.424" r="8.5"></circle>
                <circle id="Oval" stroke="#000000" stroke-linecap="square" cx="257.297" cy="9.393" r="8.5"></circle>
                <circle id="Oval" stroke="#000000" stroke-linecap="square" cx="221.868" cy="9.394" r="8.5"></circle>
                <circle id="Oval" stroke="#000000" stroke-linecap="square" cx="186.44" cy="9.395" r="8.5"></circle>
                <circle id="Oval" stroke="#000000" stroke-linecap="square" cx="151.006" cy="9.423" r="8.5"></circle>
                <circle id="Oval" stroke="#000000" stroke-linecap="square" cx="115.555" cy="9.417" r="8.5"></circle>
                <circle id="Oval" stroke="#000000" stroke-linecap="square" cx="80.138" cy="9.426" r="8.5"></circle>
                <circle id="Oval" stroke="#000000" stroke-linecap="square" cx="44.708" cy="9.423" r="8.5"></circle>
                <circle id="Oval" stroke="#000000" stroke-linecap="square" cx="9.277" cy="9.421" r="8.5"></circle>
                <circle id="Oval" stroke="#000000" stroke-linecap="square" cx="80.148" cy="61.838" r="8.5"></circle>
                <circle id="Oval" stroke="#000000" stroke-linecap="square" cx="44.72" cy="61.839" r="8.5"></circle>
                <circle id="Oval" stroke="#000000" stroke-linecap="square" cx="9.291" cy="61.84" r="8.5"></circle>
                <g id="Group" transform="translate(124.000000, 27.000000)" fill="#000000">
                    <path d="M434.494,17.147 C429.798,17.147 425.99,13.34 425.99,8.643 C425.99,3.947 429.798,0.14 434.494,0.14 C439.191,0.14 442.999,3.947 442.999,8.644 C442.999,13.342 439.191,17.149 434.494,17.149 L434.494,17.147 Z M435.59,4.724 L432.903,4.724 L432.066,5.56 L432.066,11.736 L432.903,12.573 L435.591,12.573 L436.428,11.736 L436.428,5.561 L435.591,4.725 L435.59,4.724 Z M435.555,11.374 L435.229,11.701 L433.264,11.701 L432.938,11.376 L432.938,5.923 L433.263,5.597 L435.227,5.597 L435.552,5.923 L435.552,11.376 L435.555,11.374 Z" id="Combined-Shape"></path>
                    <path d="M399.062,17.148 C394.365,17.148 390.558,13.341 390.558,8.644 C390.558,3.948 394.365,0.141 399.062,0.141 C403.759,0.141 407.566,3.948 407.566,8.645 C407.566,13.343 403.759,17.15 399.062,17.15 L399.062,17.148 Z M400.303,4.724 L397.616,4.724 L396.779,5.56 L396.779,8.248 L397.615,9.085 L400.122,9.085 L400.268,8.975 L400.268,11.375 L399.942,11.701 L397.977,11.701 L397.651,11.411 L396.781,11.411 L396.781,11.738 L397.617,12.575 L400.304,12.575 L401.141,11.738 L401.141,5.562 L400.304,4.726 L400.303,4.724 Z M400.268,7.631 L400.268,7.887 L399.942,8.213 L397.977,8.213 L397.651,7.887 L397.651,5.923 L397.978,5.597 L399.943,5.597 L400.269,5.923 L400.269,7.633 L400.268,7.631 Z" id="Combined-Shape"></path>
                    <path d="M328.198,17.147 C323.5,17.147 319.693,13.34 319.693,8.643 C319.693,3.947 323.5,0.14 328.197,0.14 C332.894,0.14 336.701,3.947 336.701,8.644 C336.701,13.342 332.894,17.149 328.197,17.149 L328.198,17.147 Z M330.406,5.56 L329.569,4.724 L326.881,4.724 L326.044,5.56 L326.044,8.248 L326.444,8.648 L326.044,9.048 L326.044,11.736 L326.881,12.573 L329.568,12.573 L330.404,11.736 L330.404,9.049 L330.004,8.647 L330.404,8.247 L330.404,5.559 L330.406,5.56 Z M329.533,11.375 L329.207,11.701 L327.243,11.701 L326.917,11.376 L326.917,9.412 L327.243,9.087 L329.207,9.087 L329.533,9.413 L329.533,11.378 L329.533,11.375 Z M329.533,7.885 L329.207,8.212 L327.243,8.212 L326.917,7.886 L326.917,5.922 L327.243,5.596 L329.207,5.596 L329.533,5.922 L329.533,7.886 L329.533,7.885 Z" id="Combined-Shape"></path>
                    <path d="M292.763,17.146 C288.067,17.146 284.259,13.34 284.259,8.643 C284.259,3.947 288.067,0.14 292.764,0.14 C297.461,0.14 301.269,3.947 301.269,8.644 C301.269,13.342 297.461,17.149 292.765,17.149 L292.763,17.146 Z M295.25,7.036 L295.249,4.724 L290.887,4.724 L290.887,5.596 L294.377,5.596 L294.377,6.772 L290.889,12.005 L290.889,12.573 L291.616,12.573 L295.25,7.036 Z" id="Combined-Shape"></path>
                    <path d="M257.33,17.146 C252.633,17.146 248.826,13.339 248.826,8.642 C248.826,3.946 252.632,0.139 257.329,0.139 C262.026,0.139 265.833,3.946 265.833,8.643 C265.833,13.341 262.027,17.148 257.33,17.148 L257.33,17.146 Z M256.414,5.596 L258.379,5.596 L258.704,5.886 L259.576,5.886 L259.576,5.56 L258.739,4.724 L256.052,4.724 L255.215,5.56 L255.215,11.736 L256.052,12.573 L258.739,12.573 L259.576,11.736 L259.576,9.049 L258.739,8.211 L256.087,8.211 L256.087,5.921 L256.413,5.595 L256.414,5.596 Z M256.414,9.086 L258.379,9.086 L258.704,9.411 L258.704,11.376 L258.378,11.702 L256.412,11.702 L256.086,11.377 L256.086,9.413 L256.412,9.088 L256.414,9.086 Z" id="Combined-Shape"></path>
                    <path d="M186.459,17.145 C181.763,17.145 177.956,13.338 177.956,8.641 C177.956,3.945 181.763,0.138 186.46,0.138 C191.158,0.138 194.965,3.945 194.965,8.642 C194.965,13.34 191.158,17.147 186.461,17.147 L186.459,17.145 Z M188.654,5.596 L188.655,4.726 L184.295,4.726 L184.295,9.086 L187.458,9.086 L187.784,9.411 L187.782,11.375 L187.457,11.7 L185.491,11.7 L185.165,11.41 L184.293,11.41 L184.293,11.735 L185.13,12.572 L187.817,12.572 L188.654,11.735 L188.654,9.049 L187.817,8.212 L185.164,8.212 L185.164,5.596 L188.654,5.596 Z" id="Combined-Shape"></path>
                    <path d="M151.027,17.145 C146.329,17.145 142.522,13.338 142.522,8.641 C142.522,3.945 146.329,0.138 151.026,0.138 C155.722,0.138 159.529,3.945 159.529,8.642 C159.529,13.34 155.722,17.147 151.025,17.147 L151.027,17.145 Z M152.58,9.375 L152.58,4.725 L151.36,4.725 L148.22,8.491 L148.22,10.248 L151.708,10.248 L151.708,12.574 L152.581,12.574 L152.581,10.248 L153.163,10.248 L153.163,9.376 L152.583,9.376 L152.58,9.375 Z M151.708,9.375 L149.092,9.375 L149.092,8.805 L151.708,5.665 L151.708,9.375 Z" id="Combined-Shape"></path>
                    <path d="M80.159,17.145 C75.462,17.145 71.655,13.338 71.655,8.641 C71.655,3.945 75.462,0.138 80.159,0.138 C84.856,0.138 88.663,3.945 88.663,8.642 C88.663,13.34 84.857,17.147 80.159,17.147 L80.159,17.145 Z M82.227,8.248 L82.224,5.564 L81.387,4.727 L78.7,4.727 L77.863,5.563 L77.863,5.888 L78.735,5.888 L79.061,5.598 L81.027,5.598 L81.353,5.924 L81.353,7.888 L81.028,8.214 L79.318,8.214 L79.318,9.087 L81.028,9.087 L81.354,9.412 L81.354,11.376 L81.029,11.701 L79.064,11.701 L78.738,11.411 L77.866,11.411 L77.866,11.736 L78.703,12.573 L81.39,12.573 L82.227,11.736 L82.227,9.048 L81.827,8.648 L82.227,8.248 Z" id="Combined-Shape"></path>
                    <path d="M44.727,17.145 C40.029,17.145 36.222,13.338 36.222,8.641 C36.222,3.945 40.029,0.138 44.726,0.138 C49.422,0.138 53.229,3.945 53.229,8.642 C53.229,13.34 49.422,17.147 44.725,17.147 L44.727,17.145 Z M47.072,7.666 L47.072,5.563 L46.235,4.726 L43.548,4.726 L42.71,5.562 L42.71,5.887 L43.582,5.887 L43.909,5.597 L45.874,5.597 L46.2,5.923 L46.2,7.306 L42.712,10.794 L42.712,12.574 L47.072,12.574 L47.072,11.701 L43.584,11.701 L43.584,11.156 L47.072,7.666 Z" id="Combined-Shape"></path>
                    <path d="M9.294,17.145 C4.597,17.145 0.79,13.338 0.79,8.641 C0.79,3.945 4.597,0.138 9.294,0.138 C13.991,0.138 17.798,3.945 17.798,8.642 C17.798,13.34 13.991,17.147 9.294,17.147 L9.294,17.145 Z M10.2,12.573 L10.199,4.724 L8.017,4.724 L8.017,5.596 L9.327,5.596 L9.327,12.573 L10.2,12.573 Z" id="Combined-Shape"></path>
                </g>
            </g>
            <g id="Dials" transform="translate(337.000000, 9.000000)">
                <path d="M214.724,57.612 C215.704,57.612 216.496,58.405 216.496,59.382 C216.496,60.359 215.703,61.155 214.724,61.155 C213.746,61.155 212.954,60.361 212.954,59.383 C212.954,58.405 213.746,57.611 214.724,57.611 L214.724,57.612 Z" id="Path" fill="#000000"></path>
                <path d="M143.858,57.612 C144.838,57.612 145.63,58.405 145.63,59.382 C145.63,60.359 144.837,61.155 143.858,61.155 C142.879,61.155 142.088,60.361 142.088,59.383 C142.088,58.405 142.88,57.611 143.858,57.611 L143.858,57.612 Z" id="Path" fill="#000000"></path>
                <path d="M72.992,57.612 C73.972,57.612 74.764,58.405 74.764,59.382 C74.764,60.359 73.971,61.155 72.992,61.155 C72.013,61.155 71.22,60.361 71.22,59.383 C71.22,58.405 72.014,57.611 72.992,57.611 L72.992,57.612 Z" id="Path" fill="#000000"></path>
                <path d="M2.126,57.612 C3.106,57.612 3.898,58.405 3.898,59.382 C3.898,60.359 3.104,61.155 2.126,61.155 C1.148,61.155 0.354,60.361 0.354,59.383 C0.354,58.405 1.147,57.611 2.126,57.611 L2.126,57.612 Z" id="Path" fill="#000000"></path>
                <path d="M31.88,40.841 C26.1,40.841 21.34,36.511 20.64,30.921 L3.535,30.921 L3.535,28.085 L20.641,28.085 C21.341,22.493 26.101,18.165 31.881,18.165 C37.661,18.165 42.424,22.493 43.123,28.085 L60.229,28.085 L60.229,30.92 L43.123,30.92 C42.423,36.51 37.663,40.84 31.883,40.84 L31.88,40.841 Z M31.9,37.06 L31.901,37.061 C33.053,37.061 34.203,36.802 35.253,36.284 L35.373,36.227 L35.373,32.957 L38.641,32.957 L38.701,32.837 C39.737,30.737 39.737,28.23 38.701,26.13 L38.641,26.01 L35.373,26.01 L35.373,22.74 L35.253,22.682 C33.153,21.646 30.646,21.647 28.546,22.682 L28.428,22.739 L28.428,26.009 L25.158,26.009 L25.098,26.129 C24.063,28.229 24.063,30.736 25.098,32.836 L25.158,32.956 L28.426,32.956 L28.426,36.226 L28.546,36.284 C29.596,36.802 30.747,37.06 31.9,37.06 Z" id="Combined-Shape" fill="#000000"></path>
                <path d="M102.751,40.842 C96.971,40.842 92.209,36.512 91.511,30.922 L74.4,30.922 L74.4,28.086 L91.507,28.086 C92.207,22.494 96.967,18.166 102.747,18.166 C108.527,18.166 113.289,22.494 113.987,28.086 L131.094,28.086 L131.094,30.921 L113.988,30.921 C113.288,36.511 108.528,40.841 102.748,40.841 L102.751,40.842 Z M102.766,37.06 L102.764,37.061 C103.915,37.061 105.068,36.802 106.118,36.284 L106.236,36.227 L106.236,32.957 L109.506,32.957 L109.564,32.837 C110.601,30.737 110.601,28.23 109.564,26.13 L109.507,26.01 L106.237,26.01 L106.237,22.74 L106.119,22.682 C104.019,21.646 101.512,21.647 99.412,22.682 L99.294,22.739 L99.294,26.009 L96.024,26.009 L95.964,26.129 C94.929,28.229 94.929,30.736 95.964,32.836 L96.024,32.956 L99.292,32.956 L99.292,36.226 L99.412,36.284 C100.462,36.802 101.613,37.06 102.766,37.06 Z" id="Combined-Shape" fill="#000000"></path>
                <path d="M173.615,40.843 C167.835,40.843 163.075,36.513 162.375,30.923 L145.269,30.923 L145.269,28.087 L162.375,28.087 C163.075,22.495 167.835,18.167 173.615,18.167 C179.395,18.167 184.157,22.495 184.855,28.087 L201.962,28.087 L201.962,30.922 L184.856,30.922 C184.156,36.512 179.396,40.842 173.616,40.842 L173.615,40.843 Z M173.632,37.06 L173.632,37.061 C174.783,37.061 175.935,36.802 176.985,36.284 L177.103,36.227 L177.103,32.957 L180.373,32.957 L180.433,32.837 C181.468,30.737 181.468,28.23 180.433,26.13 L180.373,26.01 L177.105,26.01 L177.105,22.74 L176.985,22.682 C174.885,21.646 172.378,21.647 170.278,22.682 L170.16,22.739 L170.16,26.009 L166.89,26.009 L166.83,26.129 C165.795,28.229 165.795,30.736 166.83,32.836 L166.89,32.956 L170.158,32.956 L170.158,36.226 L170.278,36.284 C171.328,36.802 172.48,37.06 173.632,37.06 Z" id="Combined-Shape" fill="#000000"></path>
                <path d="M272.828,30.922 L255.72,30.922 C255.02,36.512 250.26,40.842 244.48,40.842 C238.7,40.842 233.938,36.512 233.24,30.922 L216.133,30.922 L216.133,28.086 L233.239,28.086 C233.937,22.494 238.699,18.166 244.479,18.166 C250.259,18.166 255.019,22.494 255.719,28.086 L272.825,28.086 L272.825,30.921 L272.828,30.922 Z M244.498,37.06 L244.498,37.061 C245.65,37.061 246.802,36.802 247.85,36.284 L247.97,36.227 L247.97,32.957 L251.237,32.957 L251.297,32.837 C252.333,30.737 252.333,28.23 251.297,26.13 L251.239,26.01 L247.972,26.01 L247.972,22.74 L247.852,22.682 C245.751,21.646 243.243,21.647 241.145,22.682 L241.025,22.739 L241.025,26.009 L237.757,26.009 L237.697,26.129 C236.661,28.229 236.661,30.736 237.697,32.836 L237.755,32.956 L241.025,32.956 L241.025,36.226 L241.145,36.284 C242.194,36.802 243.346,37.06 244.498,37.06 Z" id="Combined-Shape" fill="#000000"></path>
                <path d="M31.88,0.68 C16.246,0.68 3.535,13.4 3.535,29.025 C3.535,44.661 16.255,57.372 31.881,57.372 C47.507,57.372 60.229,44.65 60.229,29.025 C60.239,13.39 47.517,0.679 31.882,0.679 L31.88,0.68 Z M102.747,0.68 C87.112,0.68 74.401,13.4 74.401,29.026 C74.401,44.661 87.123,57.372 102.748,57.372 C118.373,57.372 131.095,44.652 131.095,29.026 C131.105,13.39 118.385,0.679 102.748,0.679 L102.747,0.68 Z M173.614,0.68 C157.978,0.68 145.267,13.4 145.267,29.026 C145.267,44.661 157.989,57.372 173.614,57.372 C189.239,57.372 201.96,44.652 201.96,29.026 C201.97,13.39 189.25,0.679 173.614,0.679 L173.614,0.68 Z M244.48,0.68 C228.844,0.68 216.133,13.4 216.133,29.026 C216.133,44.661 228.855,57.372 244.48,57.372 C260.105,57.372 272.826,44.652 272.826,29.026 C272.836,13.39 260.116,0.679 244.48,0.679 L244.48,0.68 Z" id="Shape" stroke="#000000" stroke-linecap="square"></path>
            </g>
            <g id="Outline">
                <path d="M57.76,0.384 L77.6,0.384 L77.6,2.308 L57.76,2.308 L57.76,0.384 Z M93.192,0.384 L113.035,0.384 L113.035,2.308 L93.192,2.308 L93.192,0.384 Z M128.625,0.384 L148.468,0.384 L148.468,2.308 L128.625,2.308 L128.625,0.384 Z M164.09,0.384 L183.934,0.384 L183.934,2.308 L164.09,2.308 L164.09,0.384 Z" id="Shape" stroke="#000000"></path>
                <path d="M14.55,73.452 L616.92,73.452 M49.984,73.452 L49.984,165.586 M85.417,73.452 L85.417,165.586 M120.85,73.452 L120.85,165.586 M156.28,165.585 L156.28,130.155 M156.28,113.145 L156.28,73.455 M191.72,165.585 L191.72,130.155 M191.72,113.145 L191.72,73.455 M227.15,165.585 L227.15,130.155 M227.15,113.145 L227.15,73.455 M298.01,165.585 L298.01,130.155 M298.01,113.145 L298.01,73.455 M333.45,165.585 L333.45,130.155 M333.45,113.145 L333.45,2.595 M404.31,165.585 L404.31,130.155 M404.31,113.145 L404.31,2.595 M439.75,165.585 L439.75,130.155 M439.75,113.145 L439.75,73.455 M475.18,165.585 L475.18,130.155 M475.18,113.145 L475.18,2.595 M510.61,165.576 L510.61,73.456 M368.88,165.576 L368.88,73.456 M262.58,165.576 L262.58,73.456 M546.05,165.585 L546.05,130.155 M546.05,113.145 L546.05,2.595 M581.48,165.585 L581.48,130.155 M581.48,113.145 L581.48,73.455 M156.28,113.145 L156.05,113.145 M156.28,130.155 L156.05,130.155" id="Shape" stroke="#000000" stroke-linecap="square"></path>
                <polygon id="Path" stroke="#000000" points="14.55 2.692 14.55 165.682 616.92 165.682 616.92 2.692"></polygon>
                <polyline id="Shape" stroke="#000000" points="13.994 29.046 0.384 29.046 0.384 22.806 13.994 22.806"></polyline>
                <polygon id="Shape" stroke="#000000" points="67.748 165.965 103.088 165.965 103.088 167.781 67.748 167.781"></polygon>
                <g id="Group" transform="translate(75.000000, 34.000000)" fill="#000000">
                    <path d="M2.13,7.81 C1.348,7.81 0.713,7.177 0.713,6.394 C0.713,5.611 1.348,4.977 2.13,4.977 C2.912,4.977 3.548,5.611 3.548,6.394 C3.548,7.177 2.913,7.811 2.13,7.811 L2.13,7.81 Z" id="Path"></path>
                    <path d="M2.13,3.305 C1.348,3.305 0.713,2.671 0.713,1.888 C0.713,1.106 1.348,0.471 2.13,0.471 C2.912,0.471 3.548,1.106 3.548,1.888 C3.548,2.67 2.913,3.306 2.13,3.306 L2.13,3.305 Z" id="Path"></path>
                    <path d="M7.586,7.812 C6.803,7.812 6.169,7.178 6.169,6.395 C6.169,5.612 6.803,4.978 7.585,4.978 C8.368,4.978 9.003,5.612 9.003,6.395 C9.003,7.178 8.368,7.812 7.585,7.812 L7.586,7.812 Z" id="Path"></path>
                    <path d="M7.586,3.306 C6.803,3.306 6.169,2.672 6.169,1.889 C6.169,1.107 6.803,0.472 7.585,0.472 C8.368,0.472 9.003,1.107 9.003,1.889 C9.003,2.671 8.368,3.307 7.585,3.307 L7.586,3.306 Z" id="Path"></path>
                    <path d="M13.042,7.813 C12.26,7.813 11.625,7.179 11.625,6.396 C11.625,5.613 12.259,4.979 13.042,4.979 C13.825,4.979 14.46,5.613 14.46,6.396 C14.46,7.179 13.825,7.813 13.042,7.813 Z" id="Path"></path>
                    <path d="M13.042,3.307 C12.26,3.307 11.625,2.673 11.625,1.89 C11.625,1.108 12.259,0.473 13.042,0.473 C13.825,0.473 14.46,1.108 14.46,1.89 C14.46,2.672 13.825,3.308 13.042,3.308 L13.042,3.307 Z" id="Path"></path>
                    <path d="M18.499,7.814 C17.715,7.814 17.079,7.18 17.079,6.397 C17.079,5.614 17.715,4.98 18.499,4.98 C19.279,4.98 19.915,5.614 19.915,6.397 C19.915,7.18 19.28,7.814 18.498,7.814 L18.499,7.814 Z" id="Path"></path>
                    <path d="M18.499,3.308 C17.715,3.308 17.079,2.674 17.079,1.891 C17.079,1.109 17.715,0.474 18.499,0.474 C19.279,0.474 19.915,1.109 19.915,1.891 C19.915,2.673 19.28,3.309 18.498,3.309 L18.499,3.308 Z" id="Path"></path>
                </g>
            </g>
        </g>
    </g>
</svg>